<svg width="24" height="26" viewBox="0 0 24 26" fill="none" xmlns="http://www.w3.org/2000/svg">
<path d="M22 4.25C22.3315 4.25 22.6495 4.3817 22.8839 4.61612C23.1183 4.85054 23.25 5.16848 23.25 5.5C23.25 5.83152 23.1183 6.14946 22.8839 6.38388C22.6495 6.6183 22.3315 6.75 22 6.75H20.75L20.7463 6.83875L19.58 23.1775C19.5351 23.8082 19.2529 24.3985 18.7901 24.8295C18.3274 25.2604 17.7186 25.5 17.0863 25.5H6.9125C6.28017 25.5 5.67133 25.2604 5.20861 24.8295C4.74588 24.3985 4.46364 23.8082 4.41875 23.1775L3.2525 6.84L3.25 6.75H2C1.66848 6.75 1.35054 6.6183 1.11612 6.38388C0.881696 6.14946 0.75 5.83152 0.75 5.5C0.75 5.16848 0.881696 4.85054 1.11612 4.61612C1.35054 4.3817 1.66848 4.25 2 4.25H22ZM18.2463 6.75H5.75375L6.91375 23H17.0863L18.2463 6.75ZM14.5 0.5C14.8315 0.5 15.1495 0.631696 15.3839 0.866116C15.6183 1.10054 15.75 1.41848 15.75 1.75C15.75 2.08152 15.6183 2.39946 15.3839 2.63388C15.1495 2.8683 14.8315 3 14.5 3H9.5C9.16848 3 8.85054 2.8683 8.61612 2.63388C8.3817 2.39946 8.25 2.08152 8.25 1.75C8.25 1.41848 8.3817 1.10054 8.61612 0.866116C8.85054 0.631696 9.16848 0.5 9.5 0.5H14.5Z" fill="white"/>
</svg>
